<?xml version="1.0" encoding="utf-8"?>
<svg id="SvgjsSvg1001" width="288" height="288" version="1.1" xmlns="http://www.w3.org/2000/svg">
  <g id="SvgjsG1008" transform="matrix(1,0,0,1,0,0)">
    <svg xmlns="http://www.w3.org/2000/svg" width="288" height="288" viewBox="0 0 1000 666.667">
      <defs>
        <clipPath id="l" clipPathUnits="userSpaceOnUse">
          <path d="M 0,0 H 750 V 500 H 0 Z" fill="#000000" class="color000 svgShape"/>
        </clipPath>
        <clipPath id="a" clipPathUnits="userSpaceOnUse">
          <path d="M 0,0 H 750 V 500 H 0 Z" fill="#000000" class="color000 svgShape"/>
        </clipPath>
        <clipPath id="c" clipPathUnits="userSpaceOnUse">
          <path d="M 81.8022,446.533 H 709.996 V -23.7414 H 81.8022 Z" fill="#000000" class="color000 svgShape"/>
        </clipPath>
        <clipPath id="d" clipPathUnits="userSpaceOnUse">
          <path d="M 57.6966,409.383 H 679.236 V -75.4921 H 57.6966 Z" fill="#000000" class="color000 svgShape"/>
        </clipPath>
        <clipPath id="e" clipPathUnits="userSpaceOnUse">
          <path d="m 270.382,384.411 c -12.744,-0.161 -24.144,-9.85 -36.862,-9.041 v 0 c -5.888,0.375 -11.379,2.992 -17.132,4.303 v 0 c -11.214,2.558 -21.525,1.068 -30.965,-5.597 v 0 c -8.757,-6.182 -15.354,-15.559 -17.617,-26.09 v 0 c -0.819,-3.811 -1.134,-7.783 -2.725,-11.342 v 0 c -2.467,-5.516 -7.69,-9.312 -13.112,-11.98 v 0 c -5.423,-2.667 -11.259,-4.474 -16.508,-7.468 v 0 c -14.353,-8.186 -22.832,-25.601 -20.425,-41.948 v 0 c 1.139,-7.732 4.456,-15.008 8.621,-21.621 v 0 c 3.058,-4.855 6.492,-9.51 10.388,-13.62 v 0 c 6.995,-7.376 15.48,-12.995 25.955,-14.865 v 0 c 11.47,-2.047 23.651,0.175 33.659,6.138 v 0 c 1.064,0.634 2.096,1.318 3.106,2.032 v 0 c -0.911,-2.218 -1.917,-4.401 -3.03,-6.535 v 0 c -3.663,-7.024 -7.418,-12.98 -27.361,-21.398 v 0 c -0.208,-0.088 -0.389,-0.169 -0.581,-0.254 v 0 c -21.115,-0.154 -45.411,-7.068 -62.768,-18.769 v 0 C 92.776,179.447 84.258,170.242 76.765,160.412 v 0 C 56.956,134.427 43.778,103.431 38.782,71.141 v 0 c -0.13,-0.838 -0.254,-1.678 -0.373,-2.518 v 0 C 36.503,55.126 36.029,41.196 39.534,28.022 v 0 C 42.691,16.159 48.157,7.097 55.204,0 v 0 h 302.517 c 10.016,9.214 14.823,22.685 16.882,36.786 v 0 c 9.562,11.97 5.288,33.627 -0.32,50.858 v 0 c -1.957,18.058 -5.635,35.931 -10.999,53.283 v 0 c -5.404,17.483 -13.181,35.064 -25.555,48.783 v 0 c -3.703,4.107 -7.216,7.387 -10.755,9.902 v 0 c -2.316,6.735 -4.492,13.517 -6.398,20.347 v 0 c -0.244,0.875 -0.474,1.916 -0.713,3.047 v 0 c 1.815,4.704 1.987,11.059 1.888,14.956 v 0 c -0.21,8.267 -0.495,16.535 -0.743,24.802 v 0 c -0.172,5.743 -0.677,12.211 -5.073,15.91 v 0 c -3.636,3.06 -9.475,3.081 -13.134,0.048 v 0 c -3.657,-3.033 -4.717,-8.775 -2.385,-12.915 v 0 c 0.478,-0.847 1.134,-1.668 2.059,-1.967 v 0 c 1.664,-0.537 3.438,0.943 3.853,2.641 v 0 c 0.343,1.399 -0.702,3.202 -0.27,4.417 v 0 c 0.537,1.512 2.016,1.284 3.352,1.987 v 0 c -0.374,-0.197 0.201,-7.966 0.133,-8.899 v 0 c -0.228,-3.138 -1.214,-5.754 -2.072,-8.724 v 0 c -2.547,-8.813 -10.871,-15.828 -11.924,-24.89 v 0 c -0.48,-4.129 1,-8.654 4.211,-11.171 v 0 c 0.165,-2.74 0.456,-5.458 0.13,-8.215 v 0 c -0.025,-0.213 -0.038,-0.428 -0.061,-0.643 v 0 c -8.802,1.28 -17.396,3.75 -24.873,8.468 v 0 c -15.541,9.808 -22.428,30.724 -16.346,48.103 v 0 c 0.321,0.917 0.724,1.879 1.537,2.411 v 0 c 1.114,0.728 2.572,0.407 3.895,0.259 v 0 c 22.836,-2.542 21.245,33.081 20.964,47.161 v 0 c -0.143,7.198 -0.362,14.487 -1.499,21.575 v 0 c 2.118,0.669 4.087,1.695 5.768,3.191 v 0 c 3.799,3.382 5.499,8.636 5.649,13.72 v 0 c 0.429,14.612 -8.285,29.182 -24.208,29.182 v 0 c -0.11,0 -0.221,-0.001 -0.332,-0.002" fill="#000000" class="color000 svgShape"/>
        </clipPath>
        <clipPath id="f" clipPathUnits="userSpaceOnUse">
          <path d="M 248.861,411.328 H 399.383 V -27.7375 H 248.861 Z" fill="#000000" class="color000 svgShape"/>
        </clipPath>
        <clipPath id="g" clipPathUnits="userSpaceOnUse">
          <path d="M 0,0 H 750 V 500 H 0 Z" fill="#000000" class="color000 svgShape"/>
        </clipPath>
        <clipPath id="h" clipPathUnits="userSpaceOnUse">
          <path d="m 442.012,415.551 c -2.468,-1.329 -4.428,-3.443 -6.826,-4.895 v 0 c -3.229,-1.959 -7.06,-2.609 -10.604,-3.915 v 0 c -5.71,-2.1 -10.806,-6.061 -13.818,-11.347 v 0 c -3.011,-5.285 -3.797,-11.902 -1.64,-17.59 v 0 c 2.218,-5.853 7.288,-10.143 13.167,-12.487 v 0 c -1.183,-3.464 -2.248,-6.972 -3.283,-10.452 v 0 c -3.919,-13.191 -6.753,-27.481 -4.987,-41.273 v 0 c 1.808,-14.134 13.622,-18.565 16.074,-32.234 v 0 c 0.734,-4.098 0.818,-8.26 0.651,-12.428 v 0 c -0.106,-2.614 -0.309,-5.23 -0.514,-7.833 v 0 c -0.614,-7.808 -1.108,-16.791 -6.431,-23.057 v 0 c -1.366,-1.607 -3.208,-2.91 -5.297,-3.204 v 0 c -1.126,-0.159 -2.272,-0.022 -3.401,0.115 v 0 c -2.046,0.25 -4.094,0.497 -6.139,0.746 v 0 c 0.051,-0.037 0.095,-0.078 0.146,-0.115 v 0 c -20.206,1.904 -49.575,-0.536 -87.502,-24.246 v 0 c -33.592,-20.999 -66.7,-60.605 -75.258,-98.27 v 0 c -5.777,-25.424 30.391,-51.25 26.913,-76.873 v 0 C 271.425,22.644 277.791,10.093 286.998,0 v 0 h 8.686 c 1.582,3.806 3.222,7.586 4.92,11.342 v 0 c 8.742,19.346 18.931,37.991 29.486,56.397 v 0 c 10.705,18.668 21.762,37.135 32.125,55.998 v 0 c 0.535,0.976 2.185,0.56 2.131,-0.576 v 0 C 363.53,106.09 362.379,89.036 360.804,72.02 v 0 C 359.421,57.079 357.713,42.169 355.63,27.311 v 0 C 354.356,18.215 353.218,9.012 351.344,0 v 0 h 361.204 c 2.146,20.7 -2.639,42.305 -9.902,62.797 v 0 c -2.244,6.336 -4.728,12.566 -7.315,18.631 v 0 c -10.606,24.853 -23.072,49.166 -40.109,70.139 v 0 c -13.512,16.632 -30.056,31.165 -49.262,40.859 v 0 c -9.95,5.022 -19.819,6.89 -29.492,12.121 v 0 c -9.839,5.32 -20.098,9.711 -30.746,13.143 v 0 c -7.668,2.473 -15.429,4.443 -23.258,6.055 v 0 c 0.366,0.218 0.731,0.436 1.095,0.652 v 0 c -3.282,2.46 -7.858,2.53 -11.254,4.829 v 0 c -3.635,2.464 -5.224,6.966 -6.327,11.216 v 0 c -4.372,16.855 -3.228,33.004 -1.596,49.91 v 0 c 4.013,-5.421 13.136,5.817 14.528,10.072 v 0 c 1.85,5.659 1.758,11.766 3.11,17.564 v 0 c 1.29,5.539 3.87,10.692 5.471,16.149 v 0 c 2.939,10.017 2.487,20.678 1.842,31.097 v 0 c -0.395,6.37 -0.884,12.875 -3.396,18.741 v 0 c -8.307,19.393 -31.667,11.487 -46.55,20.294 v 0 c -2.884,1.707 -5.463,3.475 -8.022,5.142 v 0 c -4.854,3.162 -9.632,5.956 -16.265,7.266 v 0 c -1.807,0.357 -3.681,0.588 -5.534,0.588 v 0 c -2.641,0 -5.241,-0.47 -7.554,-1.714" fill="#000000" class="color000 svgShape"/>
        </clipPath>
        <clipPath id="i" clipPathUnits="userSpaceOnUse">
          <path d="M 479.738,413.602 H 722.636 V -33.7432 H 479.738 Z" fill="#000000" class="color000 svgShape"/>
        </clipPath>
        <clipPath id="j" clipPathUnits="userSpaceOnUse">
          <path d="m 408.867,206.932 c -8.728,-5.943 -16.063,-14.689 -17.976,-25.073 v 0 c -2.211,-11.991 2.729,-23.666 3.5,-35.529 v 0 c 0.266,-4.101 -3.132,-14.787 1.263,-15.209 v 0 c 1.942,-0.186 3.671,1.214 5.039,3.074 v 0 c 1.731,-11.646 6.07,-21.944 15.012,-30.399 v 0 c 0.56,-0.529 1.146,-1.064 1.478,-1.76 v 0 c 0.335,-0.701 0.381,-1.501 0.419,-2.277 v 0 c 0.422,-8.914 1.175,-17.866 0.425,-26.784 v 0 c -0.127,-1.51 -0.326,-2.995 -0.558,-4.472 v 0 C 388.395,58.581 359.663,43.912 341.947,18.934 v 0 C 337.74,13.003 334.26,6.617 331.278,0 v 0 h 231.487 c -2.181,8.502 -5.906,16.681 -10.807,23.903 v 0 c -12.682,18.69 -32.174,31.758 -52.547,41.509 v 0 c -7.611,3.643 -15.514,6.911 -23.665,9.014 v 0 c -0.186,3.004 -0.089,6.034 -0.328,9.022 v 0 c -0.481,5.997 -0.764,12.012 -0.95,18.025 v 0 c -0.024,0.802 -0.045,1.621 0.192,2.387 v 0 c 0.294,0.949 0.955,1.731 1.57,2.511 v 0 c 3.159,4.019 5.022,8.623 6.893,13.313 v 0 c 1.323,3.319 2.356,6.73 3.15,10.198 v 0 c 0.578,-0.935 1.334,-1.797 2.387,-2.011 v 0 c 0.939,2.329 1.923,4.657 2.906,6.989 v 0 c 0.607,0.764 1.114,1.614 1.525,2.503 v 0 c 0.646,1.396 1.081,2.883 1.342,4.4 v 0 c 1.111,2.755 2.166,5.526 3.098,8.323 v 0 c 2.279,6.023 1.371,12.764 -0.185,19.011 v 0 c -2.144,8.61 -5.515,17.013 -10.805,24.137 v 0 c -10.869,14.631 -29.167,22.69 -47.201,22.691 v 0 c -10.804,0 -21.51,-2.891 -30.473,-8.993" fill="#000000" class="color000 svgShape"/>
        </clipPath>
        <clipPath id="k" clipPathUnits="userSpaceOnUse">
          <path d="M 440.999,233.006 H 587.6 V -43.4651 H 440.999 Z" fill="#000000" class="color000 svgShape"/>
        </clipPath>
        <clipPath id="b" clipPathUnits="userSpaceOnUse">
          <path d="M 71.7171,461.159 H 700.3 V -97.0124 H 71.7171 Z" fill="#000000" class="color000 svgShape"/>
        </clipPath>
        <clipPath id="m" clipPathUnits="userSpaceOnUse">
          <path d="M 399.549,426.506 H 454.73 V 372.375 H 399.549 Z" fill="#000000" class="color000 svgShape"/>
        </clipPath>
        <clipPath id="n" clipPathUnits="userSpaceOnUse">
          <path d="m 125.765,183.699 h 113.34 V 9.88374 h -113.34 z" fill="#000000" class="color000 svgShape"/>
        </clipPath>
        <clipPath id="o" clipPathUnits="userSpaceOnUse">
          <path d="m 524.271,184.283 c -0.769,-0.482 -1.481,-1.086 -1.958,-1.859 v 0 c -1.833,-2.979 0.177,-7.525 2.291,-9.867 v 0 c -1.471,1.63 -4.54,2.48 -6.569,1.379 v 0 c -2.154,-1.169 -2.3,-4.268 -1.925,-6.395 v 0 c 0.377,-2.144 1.183,-4.212 2.356,-6.046 v 0 c -1.683,0.943 -3.95,0.421 -5.297,-0.959 v 0 c -2.969,-3.041 -0.822,-7.283 0.42,-10.64 v 0 c -1.257,0.49 -2.771,0.03 -3.689,-0.959 v 0 c -0.92,-0.989 -1.279,-2.415 -1.143,-3.759 v 0 c 0.222,-2.186 1.52,-4.846 2.664,-6.702 v 0 c 2.971,-4.818 6.454,-9.32 10.371,-13.408 v 0 c 6.05,-6.311 14.98,-8.478 21.456,-14.177 v 0 c 6.89,-6.064 11.76,-15.273 16.924,-22.916 v 0 C 572.738,69.378 584.816,50.45 596.388,31.217 v 0 C 602.676,20.767 608.996,10.036 616.063,0 v 0 h 86.732 c -4.12,39.316 -50.816,71.472 -78.281,93.925 v 0 c -10.342,8.453 -20.7,16.901 -30.569,25.91 v 0 c -8.022,7.324 -20.122,16.253 -23.839,26.806 v 0 c -1.344,3.813 -2.656,7.94 -5.101,11.193 v 0 c -2.181,2.9 -5.299,4.4 -8.382,6.157 v 0 c -6.125,3.489 -11.338,8.292 -16.519,13.014 v 0 c -0.249,0.227 -0.506,0.47 -0.772,0.726 v 0 c -3.083,2.97 -7.213,7.59 -11.608,7.59 v 0 c -1.138,0 -2.293,-0.309 -3.453,-1.038" fill="#000000" class="color000 svgShape"/>
        </clipPath>
        <clipPath id="p" clipPathUnits="userSpaceOnUse">
          <path d="m 503.385,194.644 h 36.038 v -63.87 h -36.038 z" fill="#000000" class="color000 svgShape"/>
        </clipPath>
        <clipPath id="q" clipPathUnits="userSpaceOnUse">
          <path d="m 409.858,206.932 c -8.727,-5.943 -16.062,-14.689 -17.975,-25.073 v 0 c -2.211,-11.991 2.728,-23.666 3.499,-35.529 v 0 c 0.266,-4.101 -3.132,-14.787 1.262,-15.209 v 0 c 4.101,-0.393 7.271,6.259 8.037,9.462 v 0 c 0.735,3.071 0.767,6.32 1.927,9.257 v 0 c 2.14,5.415 7.755,8.742 13.411,10.127 v 0 c 3.469,0.849 7.032,1.119 10.602,1.359 v 0 c 2.252,0.153 4.506,0.293 6.742,0.561 v 0 c 12.606,1.511 23.053,6.9 32.138,15.412 v 0 c 9.384,8.79 13.707,-8.095 13.754,-14.118 v 0 c 0.085,-11.125 -1.648,-23.008 3.697,-32.766 v 0 c 0.613,-1.121 1.446,-2.29 2.699,-2.544 v 0 c 2.97,7.358 6.364,14.694 8.872,22.215 v 0 c 2.278,6.023 1.37,12.764 -0.185,19.011 v 0 c -2.145,8.61 -5.516,17.013 -10.806,24.137 v 0 c -10.87,14.632 -29.166,22.691 -47.201,22.691 v 0 c -10.802,-0.001 -21.512,-2.892 -30.473,-8.993" fill="#000000" class="color000 svgShape"/>
        </clipPath>
        <clipPath id="r" clipPathUnits="userSpaceOnUse">
          <path d="m 375.228,219.655 h 62.221 v -51.579 h -62.221 z" fill="#000000" class="color000 svgShape"/>
        </clipPath>
        <clipPath id="s" clipPathUnits="userSpaceOnUse">
          <path d="m 294.88,204.055 c -18.334,-4.542 -35.825,-9.57 -54.909,-7.939 v 0 c -24.051,2.056 -46.647,8.625 -70.891,9.021 v 0 c -21.628,0.351 -47.077,-6.656 -65.064,-18.781 v 0 C 93.767,179.447 85.25,170.242 77.756,160.412 v 0 C 57.947,134.427 44.769,103.431 39.774,71.141 v 0 c -0.13,-0.838 -0.255,-1.678 -0.373,-2.518 v 0 C 37.495,55.126 37.021,41.196 40.525,28.022 v 0 C 43.682,16.159 49.148,7.097 56.196,0 v 0 h 302.517 c 14.694,13.516 18.185,36.19 18.221,56.581 v 0 c 0.053,28.538 -4.231,57.081 -12.658,84.346 v 0 c -5.404,17.483 -13.182,35.064 -25.556,48.783 v 0 c -10.027,11.119 -18.65,16.239 -30.222,16.238 v 0 c -4.104,0 -8.58,-0.644 -13.618,-1.893" fill="#000000" class="color000 svgShape"/>
        </clipPath>
        <clipPath id="t" clipPathUnits="userSpaceOnUse">
          <path d="M 34.0508,210.818 H 152.791 V 84.9176 H 34.0508 Z" fill="#000000" class="color000 svgShape"/>
        </clipPath>
        <clipPath id="u" clipPathUnits="userSpaceOnUse">
          <path d="m 271.373,384.411 c -12.743,-0.161 -24.143,-9.85 -36.862,-9.041 v 0 c -5.889,0.375 -11.379,2.992 -17.131,4.303 v 0 c -11.214,2.558 -21.525,1.068 -30.966,-5.597 v 0 c -8.757,-6.182 -15.354,-15.559 -17.617,-26.09 v 0 c -0.818,-3.811 -1.133,-7.783 -2.725,-11.342 v 0 c -2.467,-5.516 -7.69,-9.312 -13.112,-11.98 v 0 c -5.422,-2.667 -11.259,-4.474 -16.508,-7.468 v 0 C 122.099,309.01 113.62,291.595 116.028,275.248 v 0 c 1.139,-7.732 4.455,-15.008 8.62,-21.622 v 0 c 3.058,-4.854 6.492,-9.509 10.388,-13.618 v 0 c 6.995,-7.377 15.481,-12.996 25.956,-14.866 v 0 c 11.469,-2.047 23.65,0.175 33.659,6.138 v 0 c 10.008,5.965 17.759,15.622 21.417,26.682 v 0 c 4.077,12.331 3.102,25.666 3.949,38.626 v 0 c 0.115,1.768 0.298,3.627 1.309,5.081 v 0 c 2.793,4.016 9.129,2.193 13.688,3.963 v 0 c 3.877,1.506 6.187,5.677 6.723,9.802 v 0 c 1.023,7.87 -6.652,19.425 2.317,24.287 v 0 c 2.884,1.563 6.307,1.821 9.579,1.576 v 0 c 6.317,-0.471 12.377,-2.663 18.642,-3.603 v 0 c 6.264,-0.939 13.259,-0.396 17.989,3.817 v 0 c 3.798,3.382 5.5,8.636 5.65,13.72 v 0 c 0.428,14.613 -8.283,29.183 -24.208,29.182 v 0 c -0.11,0 -0.222,-0.001 -0.333,-0.002" fill="#000000" class="color000 svgShape"/>
        </clipPath>
        <clipPath id="v" clipPathUnits="userSpaceOnUse">
          <path d="M 151.795,392.663 H 231.3 v -81.701 h -79.505 z" fill="#000000" class="color000 svgShape"/>
        </clipPath>
      </defs>
      <g transform="matrix(1.33333 0 0 -1.33333 0 666.667)" fill="#000000" class="color000 svgShape">
        <path d="M 0,0 H 750 V 500 H 0 Z" class="colorfff svgShape" style="fill: rgba(255, 255, 255, 0);"/>
        <g clip-path="url(#a)" fill="#000000" class="color000 svgShape">
          <g clip-path="url(#b)" opacity=".19" fill="#000000" class="color000 svgShape">
            <path fill="#00cac9" d="m 0,0 c 28.624,-17.774 60.559,-29.592 92.934,-38.925 39.656,-11.432 80.904,-19.35 122.068,-16.384 60.625,4.371 113.706,34.357 164.387,65.511 12.05,7.408 24.03,15.246 35.531,23.705 34.661,25.492 64.974,56.622 79.762,98.606 14.707,41.754 3.896,83.756 -6.682,125.157 -3.857,15.094 -7.714,30.186 -11.571,45.28 -12.722,49.794 -24.477,108.306 -63.373,144.639 -79.549,74.308 -193.651,64.884 -285.487,19.023 C 101.139,453.413 76.51,436.927 52.01,420.419 20.566,399.232 -10.806,377.926 -41.5,355.667 -72.248,333.369 -102.99,314.968 -115.731,277.951 -144.562,194.191 -114.108,106.396 -54.882,44.95 -38.434,27.886 -20.156,12.517 0,0" transform="translate(198.45 -41.077)" class="color00cac9 svgShape"/>
          </g>
          <g clip-path="url(#c)" opacity=".14" fill="#000000" class="color000 svgShape">
            <path fill="#009797" d="m 0,0 c -14.693,65.558 13.207,133.166 52.827,184.773 38.489,50.135 93.766,87.623 155.245,102.928 80.907,20.141 167.283,3.079 243.908,-29.789 44.833,-19.231 88.221,-44.496 120.005,-81.504 30.671,-35.711 49.233,-81.639 51.987,-128.633 3.137,-53.561 -24.11,-95.574 -60.294,-132.469 -35.495,-36.193 -81.639,-61.181 -130.227,-74.841 -63.128,-17.747 -130.215,-17.349 -195.129,-8.064 -47.281,6.763 -94.511,18.399 -136.306,41.516 -41.794,23.117 -77.98,58.66 -95.121,103.239 C 4.032,-15.397 1.739,-7.76 0,0" transform="translate(85.78 150.17)" class="color009797 svgShape"/>
          </g>
          <g clip-path="url(#d)" opacity=".36" fill="#000000" class="color000 svgShape">
            <path fill="#65b4b4" d="m 0,0 c 22.544,-42.705 67.542,-65.939 99.814,-100.06 35.595,-37.631 61.782,-84.368 108.282,-110.638 25.049,-14.153 53.455,-21.432 81.947,-25.432 40.924,-5.744 83.166,-4.92 122.91,6.405 41.701,11.884 77.677,35.154 109.787,63.742 32.871,29.265 59.929,68.045 75.133,109.63 11.753,32.152 14.299,69.197 -0.841,99.899 -25.28,51.259 -82.979,73.939 -121.006,113.329 -23.882,24.737 -40.345,56.176 -69.629,75.731 -17.274,11.537 -40.209,17.156 -58.998,8.297 C 320.62,228.278 313.428,193.689 293.33,171.95 273.511,150.514 242.167,143.267 213.017,144.855 149.695,148.305 89.905,189.919 30.71,146.893 -15.553,113.267 -26.117,49.474 0,0" transform="translate(71.688 164.128)" class="color65b4b4 svgShape"/>
          </g>
          <path fill="#008ccc" d="m 0,0 c -2.245,6.337 -4.728,12.566 -7.315,18.63 -10.606,24.854 -23.072,49.167 -40.11,70.141 -13.512,16.631 -30.055,31.165 -49.262,40.859 -9.95,5.021 -19.818,6.889 -29.492,12.12 -9.839,5.319 -20.097,9.712 -30.745,13.144 -43.033,13.874 -88.984,12.181 -133.419,17.551 -20.253,2.448 -50.724,1.081 -90.696,-23.906 -33.591,-20.999 -66.699,-60.604 -75.257,-98.269 -5.777,-25.425 30.391,-51.25 26.913,-76.874 -2.23,-16.432 7.609,-31.397 19.946,-42.289 2.325,5.871 4.794,11.684 7.394,17.438 8.743,19.347 18.932,37.991 29.487,56.397 10.705,18.668 21.762,37.135 32.124,55.998 0.536,0.976 2.186,0.56 2.132,-0.577 -0.816,-17.07 -1.968,-34.124 -3.542,-51.14 -1.383,-14.941 -3.092,-29.851 -5.174,-44.71 -1.474,-10.522 -2.766,-21.187 -5.226,-31.536 -1.617,-6.803 -6.235,-12.738 -7.548,-19.184 -3.114,-15.296 10.87,-30.916 21.66,-39.655 29.26,-23.701 67.224,-34.628 104.792,-37.174 37.569,-2.546 75.188,2.705 112.431,8.254 21.218,3.16 42.594,6.467 62.696,13.951 26.629,9.913 51.43,28.361 62.289,54.618 C 15.368,-58.914 10.062,-28.39 0,0" transform="translate(702.646 62.797)" class="color008ccc svgShape"/>
          <path fill="none" stroke="#ffffff" stroke-miterlimit="10" stroke-width="2" d="m 0,0 c -9.105,6.143 -15.464,16.21 -17.097,27.072 -0.741,4.926 -0.55,9.939 -0.359,14.916" transform="translate(435.636 264.734)" class="colorStrokefff svgStroke"/>
          <path fill="#f88f71" d="m 0,0 c 0.734,-4.097 0.818,-8.26 0.651,-12.428 -0.105,-2.614 -0.309,-5.23 -0.514,-7.832 -0.614,-7.808 -1.108,-16.792 -6.431,-23.058 -1.366,-1.607 -3.207,-2.909 -5.296,-3.204 -1.127,-0.159 -2.272,-0.021 -3.402,0.115 -2.046,0.249 -4.093,0.497 -6.139,0.746 3.446,-2.476 5.63,-6.016 8.438,-9.052 13.08,-14.143 30.116,-24.287 49.945,-23.84 20.307,0.457 38.773,11.179 56.212,21.593 -3.281,2.459 -7.858,2.529 -11.253,4.829 -3.636,2.463 -5.225,6.965 -6.327,11.215 -4.729,18.228 -3.008,35.625 -1.193,54.052 l 5.675,57.608 c 2.174,22.069 0.874,31.589 -21.114,40.656 -7.228,2.981 -14.645,5.636 -22.356,6.922 -7.014,1.17 -14.462,1.136 -20.947,-1.781 C 11.936,114.736 8.451,111.894 5.494,108.636 -3.286,98.963 -7.364,86.03 -11.086,73.507 -15.006,60.316 -17.84,46.026 -16.074,32.234 -14.266,18.1 -2.451,13.669 0,0" transform="translate(430.095 281.358)" class="colorf88f71 svgShape"/>
          <path fill="#ffffff" d="m 0,0 c 12.153,-10.884 22.587,-24.623 37.477,-31.046 0.798,-0.345 1.075,-1.341 0.538,-2.026 -4.906,-6.241 -10.06,-12.288 -15.446,-18.12 -1.839,-1.991 -3.76,-4 -6.195,-5.189 -4.646,-2.272 -10.224,-1.144 -15.061,0.688 -10.048,3.805 -18.922,10.565 -25.417,19.109 -6.343,8.343 -13.989,17.245 -14.26,28.303 -0.246,10.041 5.589,19.264 6.739,29.242 C -25.6,17.267 -19.051,15.026 -13.23,10.848 -8.595,7.521 -4.249,3.805 0,0" transform="translate(454.777 257.492)" class="colorfff svgShape"/>
          <path fill="none" stroke="#ffffff" stroke-miterlimit="10" stroke-width="2" d="m 0,0 c 14.601,-10.139 28.607,-21.133 41.928,-32.905 5.505,-4.866 11.746,-9.364 16.172,-15.306 5.19,-6.972 4.376,-14.331 3.519,-22.81 -0.546,-5.395 -2.137,-10.877 -5.718,-14.95 -3.581,-4.072 -9.459,-6.418 -14.613,-4.73 -6.306,2.065 -9.45,8.949 -11.875,15.126 -6.327,16.111 -14.429,27.84 -27.373,39.838 -8.127,7.533 -18.795,11.968 -23.313,23.039" transform="translate(479.68 228.842)" class="colorStrokefff svgStroke"/>
          <path fill="#f88f71" d="m 0,0 c 0.011,2.081 0.292,4.262 1.497,5.959 1.205,1.697 3.564,2.719 5.449,1.839 0.931,-0.434 1.622,-1.25 2.209,-2.092 2.066,-2.963 3.169,-6.469 4.474,-9.837 1.983,-5.122 4.494,-10.042 7.476,-14.655 1.784,-2.757 3.802,-5.589 4.025,-8.864 0.079,-1.159 -0.141,-2.453 -1.044,-3.182 -1.494,-1.208 -3.7,-0.17 -5.257,0.956 C 9.27,-22.959 -0.068,-12.4 0,0" transform="translate(539.764 182.347)" class="colorf88f71 svgShape"/>
          <path fill="#cf3b3b" d="m 0,0 c 2.559,-1.667 5.138,-3.436 8.021,-5.142 14.884,-8.808 38.244,-0.901 46.55,-20.294 2.513,-5.866 3.002,-12.371 3.397,-18.741 0.644,-10.419 1.097,-21.081 -1.842,-31.097 -1.601,-5.457 -4.182,-10.61 -5.472,-16.149 -1.351,-5.798 -1.259,-11.906 -3.109,-17.564 -1.505,-4.601 -12.056,-17.385 -15.404,-8.418 -1.819,4.872 1.253,9.231 0.411,13.886 -0.717,3.962 -4.349,6.806 -7.488,8.861 -3.362,2.203 -7.111,4.718 -7.899,8.659 -0.568,2.844 0.569,5.928 -0.487,8.628 -0.711,1.817 -2.322,3.17 -3.022,4.991 -1.409,3.664 1.231,7.48 2.834,11.064 0.675,1.508 1.183,3.189 0.819,4.801 -0.365,1.612 -1.865,3.06 -3.504,2.855 -2.245,-0.281 -3.732,-2.519 -6.107,-2.975 -2.853,-0.548 -5.716,-0.171 -8.405,0.895 -5.476,2.168 -9.877,6.615 -12.634,11.819 -0.508,0.96 -1.113,2.064 -2.182,2.255 -0.591,0.106 -1.188,-0.105 -1.753,-0.31 -8.045,-2.909 -16.634,-5.067 -25.109,-3.897 -8.474,1.171 -16.824,6.267 -19.856,14.266 -2.156,5.688 -1.371,12.304 1.64,17.59 3.012,5.286 8.108,9.247 13.818,11.348 3.545,1.304 7.375,1.955 10.604,3.913 2.398,1.453 4.358,3.568 6.826,4.896 3.935,2.117 8.705,1.991 13.088,1.125 C -9.632,5.956 -4.854,3.161 0,0" transform="translate(471.365 409.411)" class="colorcf3b3b svgShape"/>
          <path fill="#f88f71" d="m 0,0 c -11.12,-1.16 -16.408,10.192 -16.501,19.677 -0.038,3.863 1.179,7.796 3.711,10.714 3.248,3.742 8.534,5.51 13.427,4.725 C 12.994,33.134 17.224,17.877 11.562,7.827 9.753,4.616 6.91,1.884 3.406,0.74 2.23,0.356 1.095,0.114 0,0" transform="translate(503.668 305.371)" class="colorf88f71 svgShape"/>
          <path fill="#ffffff" d="m 0,0 c 0.985,-8.596 10.774,-14.418 19.267,-12.759 4.202,0.821 8.098,3.127 10.837,6.417" transform="translate(422.985 314.5)" class="colorfff svgShape"/>
          <path fill="none" stroke="#008080" stroke-miterlimit="10" d="m 0,0 c -1.895,0.085 -3.77,-0.495 -5.462,-1.35 -3.491,-1.765 -6.374,-4.794 -7.737,-8.46 -1.364,-3.667 -1.128,-7.945 0.839,-11.327" transform="translate(507.219 334.783)" class="colorStroke2c2a8b svgStroke"/>
          <path fill="none" stroke="#008080" stroke-miterlimit="10" d="m 0,0 c 0.524,0.133 1.042,-0.218 1.438,-0.584 1.417,-1.312 2.387,-3.098 2.714,-5" transform="translate(495.584 327.73)" class="colorStroke2c2a8b svgStroke"/>
          <path fill="none" stroke="#008080" stroke-miterlimit="10" d="M 0,0 C 3.737,-4.94 8.881,-8.804 14.666,-11.018" transform="translate(425.441 292.456)" class="colorStroke2c2a8b svgStroke"/>
          <path fill="#cf3b3b" d="m 0,0 c 4.996,32.289 18.174,63.285 37.983,89.271 7.493,9.83 16.011,19.035 26.26,25.943 17.987,12.126 43.436,19.133 65.064,18.781 24.243,-0.395 46.839,-6.965 70.891,-9.02 19.084,-1.632 36.573,3.396 54.908,7.939 19.249,4.77 30.257,0.716 43.841,-14.346 12.373,-13.718 20.152,-31.299 25.555,-48.782 8.428,-27.265 12.712,-55.808 12.66,-84.347 -0.041,-21.941 -4.08,-46.527 -21.774,-59.502 -7.084,-5.195 -15.656,-7.918 -24.174,-10.069 -26.657,-6.729 -54.247,-8.649 -81.574,-11.671 -43.616,-4.823 -88.698,-12.724 -132.137,-2.381 -33.293,7.928 -66.711,17.33 -76.751,55.065 -3.505,13.173 -3.031,27.103 -1.125,40.6 C -0.254,-1.679 -0.13,-0.839 0,0" transform="translate(38.782 71.142)" class="colorcf3b3b svgShape"/>
          <path fill="#f88f71" d="m 0,0 c -0.62,8.603 0.235,16.417 1.593,24.863 1.133,7.048 4.82,12.229 10.098,17.157 5.48,5.115 15.492,7.494 22.543,9.626 8.501,2.571 17.324,4.241 26.228,4.216 4.96,-0.014 10.183,-0.649 14.182,-3.583 3.553,-2.606 5.694,-6.713 7.196,-10.856 3.841,-10.595 4.238,-22.085 4.463,-33.352 0.28,-14.08 1.872,-49.703 -20.965,-47.161 -1.322,0.147 -2.78,0.469 -3.895,-0.26 -0.812,-0.531 -1.215,-1.494 -1.536,-2.411 -6.083,-17.378 0.805,-38.294 16.346,-48.103 10.39,-6.556 22.935,-8.783 35.2,-9.488 -19.611,-11.2 -41.938,-16.933 -64.341,-19.788 -15.232,-1.942 -30.743,-2.602 -45.908,-0.194 -12.038,1.913 -23.715,3.042 -34.136,9.434 -4.89,3.001 -5.645,3.967 0.605,6.605 19.942,8.418 23.698,14.374 27.361,21.397 6.455,12.377 9.514,26.28 9.075,40.233 C 3.671,-27.712 1.002,-13.924 0,0" transform="translate(198.702 308.674)" class="colorf88f71 svgShape"/>
          <path fill="#ffa88d" d="m 0,0 c 9.6,-21.469 20.887,-42.235 29.103,-64.028 9.314,-24.71 21.552,-68.813 -19.182,-69.2 -10.705,-0.101 -21.348,4.897 -28.107,13.201 -6.812,8.37 -9.473,19.27 -11.944,29.776 -7.127,30.3 -11.415,60.333 -12.547,91.503 -0.399,10.959 -0.459,21.93 -0.181,32.893 0.134,5.282 0.239,10.582 0.858,15.819 0.53,4.487 -0.574,8.869 -0.109,13.417 0.425,4.152 2.195,8.357 5.595,10.791 12.269,8.769 13.283,-8.357 15.202,-15.235 C -17.57,45.524 -12.791,32.299 -7.943,19.253 -5.524,12.744 -2.836,6.342 0,0" transform="translate(341.888 161.022)" class="colorffa88d svgShape"/>
          <path fill="#008080" d="m 0,0 c 18.359,25.882 48.545,40.697 78.682,50.631 13.13,4.327 26.789,7.968 40.593,7.198 13.347,-0.744 26.133,-5.58 38.189,-11.351 20.373,-9.752 39.865,-22.819 52.547,-41.509 12.683,-18.691 17.499,-43.797 8.023,-64.3 -3.319,-7.178 -8.211,-13.535 -13.672,-19.256 -9.727,-10.188 -21.382,-18.529 -34.163,-24.448 -23.665,-10.96 -50.387,-13.387 -76.465,-13.158 -22.753,0.2 -45.928,2.406 -66.854,11.34 -16.443,7.021 -30.651,18.37 -40.295,33.48 -9.656,15.128 -7.747,25.143 -1.646,41.65 C -11.203,-19.281 -6.458,-9.105 0,0" transform="translate(341.947 18.935)" class="color2c2a8b svgShape"/>
          <path fill="#008080" d="m 0,0 c -3.896,4.108 -7.33,8.763 -10.388,13.618 -4.165,6.613 -7.482,13.889 -8.62,21.621 -2.408,16.347 6.071,33.762 20.424,41.948 5.249,2.994 11.085,4.801 16.508,7.469 5.422,2.667 10.645,6.464 13.112,11.98 1.591,3.558 1.906,7.531 2.725,11.341 2.263,10.531 8.861,19.908 17.617,26.09 9.441,6.665 19.751,8.155 30.965,5.598 5.753,-1.312 11.244,-3.929 17.133,-4.304 12.718,-0.809 24.118,8.88 36.861,9.041 16.134,0.204 24.972,-14.466 24.54,-29.18 -0.149,-5.084 -1.85,-10.337 -5.648,-13.72 -4.731,-4.212 -11.726,-4.756 -17.99,-3.816 -6.264,0.939 -12.325,3.131 -18.642,3.603 -3.272,0.244 -6.695,-0.013 -9.579,-1.577 -8.97,-4.861 -1.294,-16.416 -2.317,-24.287 C 106.165,71.3 103.855,67.129 99.978,65.624 95.419,63.854 89.083,65.676 86.29,61.661 85.278,60.206 85.096,58.347 84.98,56.579 84.133,43.619 85.109,30.285 81.032,17.954 77.374,6.893 69.623,-2.764 59.615,-8.729 49.606,-14.692 37.425,-16.914 25.956,-14.866 15.48,-12.997 6.995,-7.378 0,0" transform="translate(134.045 240.009)" class="color2c2a8b svgShape"/>
          <path fill="none" stroke="#ffffff" stroke-miterlimit="10" stroke-width="2" d="m 0,0 c -7.684,4.641 -15.047,9.811 -22.023,15.46 -6.133,4.966 -11.807,12.074 -19.246,15.051 -1,0.4 -2.085,0.739 -3.14,0.519 -1.977,-0.414 -3.03,-2.552 -3.623,-4.483 -7.366,-23.96 16.074,-48.384 36.628,-57.175" transform="translate(257.745 277.076)" class="colorStrokefff svgStroke"/>
          <path fill="#f88f71" d="m 0,0 c -0.734,0.995 -1.317,1.814 -1.633,2.281 -3.077,4.548 -2.681,9.514 -1.281,14.582 1.012,3.658 2.023,7.317 3.034,10.975 0.816,2.95 1.64,5.923 3.038,8.645 1.602,3.118 4.819,6.148 8.185,5.171 1.103,-0.32 2.053,-1.047 2.815,-1.905 5.551,-6.255 1.294,-18.561 0.703,-25.83 -0.622,-7.651 2.138,-15.462 -0.331,-22.973 -0.352,-1.071 -0.908,-2.21 -1.96,-2.614 -1.732,-0.664 -3.405,1.014 -4.508,2.505 C 6.74,-8.802 2.499,-3.388 0,0" transform="translate(297.037 234.66)" class="colorf88f71 svgShape"/>
          <g transform="translate(264.77 278.93)" fill="#000000" class="color000 svgShape">
            <path fill="#ffffff" d="m 0,0 c -2.823,0.555 -5.818,1.32 -8.501,0.28 -2.828,-1.095 -4.553,-3.905 -6.036,-6.55 -3.056,-5.451 -5.996,-11.076 -7.307,-17.187 -1.312,-6.111 -0.83,-12.845 2.581,-18.081 4.066,-6.243 11.839,-9.456 19.285,-9.244 7.447,0.213 14.546,3.461 20.56,7.858 7.136,5.218 13.633,10.398 18.24,18.124 1.468,2.461 9.312,18.083 5.528,19.644 -3.783,1.561 -7.971,1.314 -11.882,2.338 -3.843,1.006 -7.905,1.338 -11.856,1.617 C 13.838,-0.722 6.683,-1.313 0,0" class="colorfff svgShape"/>
          </g>
          <g transform="translate(321.008 262.764)" fill="#000000" class="color000 svgShape">
            <path fill="#ffa88d" d="m 0,0 c -0.172,5.743 -0.677,12.211 -5.073,15.91 -3.636,3.06 -9.475,3.081 -13.134,0.048 -3.658,-3.034 -4.718,-8.775 -2.384,-12.916 0.477,-0.846 1.133,-1.667 2.058,-1.965 1.663,-0.538 3.437,0.942 3.853,2.64 0.342,1.399 -0.703,3.202 -0.271,4.417 0.538,1.512 2.017,1.284 3.353,1.988 -0.374,-0.197 0.201,-7.967 0.133,-8.9 -0.228,-3.138 -1.214,-5.755 -2.072,-8.723 -2.546,-8.814 -10.871,-15.829 -11.924,-24.891 -0.549,-4.723 1.467,-9.965 5.703,-12.125 1.631,-0.832 3.465,-1.168 5.278,-1.428 3.422,-0.491 7.216,-0.658 10.008,1.381 4.958,3.622 5.356,14.199 5.215,19.762 C 0.533,-16.535 0.248,-8.267 0,0" class="colorffa88d svgShape"/>
          </g>
          <g transform="translate(291.273 273.321)" fill="#000000" class="color000 svgShape">
            <path fill="#ffa88d" d="m 0,0 c -2.203,-2.284 -4.572,-5.032 -4.185,-8.181 0.048,-0.388 0.147,-0.79 0.413,-1.077 0.681,-0.736 1.902,-0.299 2.756,0.225 2.56,1.573 4.864,3.559 6.795,5.859 2.571,3.062 4.17,4.064 7.598,5.609 2.107,0.95 4.149,-0.976 2.206,3.187 C 11.561,14.239 3.095,3.208 0,0" class="colorffa88d svgShape"/>
          </g>
        </g>
        <g clip-path="url(#e)" fill="#000000" class="color000 svgShape">
          <g clip-path="url(#f)" opacity=".19" fill="#000000" class="color000 svgShape">
            <path fill="#846cc1" d="m 0,0 c 6.416,-10.222 4.42,-26.613 -6.871,-30.875 13.039,-16.8 15.047,-41.406 4.904,-60.098 14.057,-0.279 27.639,-8.864 33.922,-21.442 7.143,-14.3 -1.87,-25.707 0.909,-38.638 1.164,-5.421 8.359,-12.561 10.728,-18.125 3.176,-7.455 5.257,-15.365 7.35,-23.175 5.91,-22.048 11.819,-44.096 17.728,-66.145 4.427,-16.517 8.877,-33.174 9.85,-50.245 0.928,-16.312 -1.341,-32.677 -0.455,-48.989 0.664,-12.234 7.187,-49.508 23.363,-40.794 15.355,8.269 21.329,38.49 23.6,53.743 11.351,76.242 -18.632,151.683 -33.606,227.298 C 83.207,-76.002 79.108,-32.574 58.727,4.479 48.864,22.41 32.37,39.769 11.914,39.219 1.949,38.951 -18.386,31.57 -22.561,21.288 -26.198,12.33 -5.409,8.618 0,0" transform="translate(271.846 372.096)" class="color846cc1 svgShape"/>
          </g>
        </g>
        <g clip-path="url(#g)" fill="#000000" class="color000 svgShape">
          <path fill="#f88f71" d="m 0,0 c 2.038,-0.085 4.078,0.299 5.871,1.26 9.074,4.865 7.698,24.594 -1.723,28.492 -3.502,1.45 -7.66,0.332 -10.694,-1.941 -4.154,-3.114 -6.637,-8.145 -6.966,-13.29 -0.413,-6.467 3.304,-11.6 9.483,-13.746 C -2.738,0.327 -1.37,0.058 0,0" transform="translate(211.85 280.736)" class="colorf88f71 svgShape"/>
          <path fill="none" stroke="#008080" stroke-miterlimit="10" d="m 0,0 c 1.658,1.176 3.998,0.796 5.776,-0.19 1.589,-0.882 2.931,-2.204 3.838,-3.778 1.758,-3.054 1.795,-6.766 1.785,-10.29" transform="translate(206.082 304.556)" class="colorStroke2c2a8b svgStroke"/>
          <path fill="none" stroke="#008080" stroke-miterlimit="10" d="M 0,0 C -3.1,-0.396 -5.726,-3.174 -5.946,-6.292" transform="translate(215.035 301.15)" class="colorStroke2c2a8b svgStroke"/>
          <path fill="#ffffff" d="m 0,0 c 1.015,-2.36 2.139,-4.855 4.286,-6.266 1.097,-0.722 2.39,-1.102 3.692,-1.276 2.518,-0.337 5.175,0.095 7.333,1.436 2.159,1.34 3.762,3.63 4.044,6.155" transform="translate(260.713 294.359)" class="colorfff svgShape"/>
          <path fill="#f88f71" d="M 0,0 C 0.357,3.522 0.911,7.021 1.693,10.479 3.674,19.224 7.2,27.776 13.072,34.552 22.346,45.25 37.318,50.604 51.315,48.48 63.991,46.557 75.526,38.646 82.222,27.759 c 7.372,-11.988 6.557,-27.156 6.087,-40.694 -0.331,-9.506 -1.799,-19.038 -5.337,-27.91 -1.87,-4.689 -3.734,-9.293 -6.894,-13.312 -0.614,-0.781 -1.275,-1.563 -1.569,-2.511 -0.237,-0.767 -0.216,-1.585 -0.192,-2.387 0.186,-6.013 0.469,-12.029 0.95,-18.025 0.426,-5.33 -0.217,-10.792 1.584,-15.996 1.711,-4.944 5.809,-9.427 11.009,-9.988 0.765,-0.082 1.708,-0.197 1.98,-0.916 0.152,-0.401 0.019,-0.848 -0.12,-1.253 -2.379,-6.9 -6.782,-12.995 -12.109,-17.984 -9.658,-9.046 -23.18,-14.665 -36.225,-12.446 -14.607,2.483 -26.361,14.46 -31.725,28.269 0.162,-0.419 3.872,2.397 4.164,2.833 0.72,1.072 1.036,2.716 1.441,3.934 1.413,4.266 2.232,8.591 2.609,13.073 0.752,8.918 -0.002,17.87 -0.425,26.784 -0.037,0.777 -0.083,1.577 -0.418,2.278 -0.332,0.695 -0.918,1.23 -1.478,1.76 C 5.268,-47.007 1.069,-34.845 -0.072,-20.993 -0.647,-14.013 -0.707,-6.962 0,0" transform="translate(400.151 160.528)" class="colorf88f71 svgShape"/>
          <path fill="none" stroke="#ffffff" stroke-miterlimit="10" stroke-width="2" d="m 0,0 c -4.187,10.219 -10.054,19.747 -17.293,28.087 -2.324,2.677 -4.886,5.301 -8.155,6.671 -3.269,1.37 -7.413,1.202 -9.955,-1.268 -1.798,-1.747 -2.524,-4.317 -2.876,-6.8 -1.401,-9.854 2.004,-19.909 7.403,-28.271 5.398,-8.361 12.69,-15.3 19.91,-22.151" transform="translate(308.768 54.042)" class="colorStrokefff svgStroke"/>
          <path fill="#008080" d="m 0,0 c -3.57,-0.24 -7.133,-0.51 -10.602,-1.359 -5.656,-1.385 -11.271,-4.712 -13.411,-10.127 -1.16,-2.937 -1.192,-6.186 -1.926,-9.257 -0.766,-3.202 -3.937,-9.856 -8.038,-9.462 -4.394,0.422 -0.996,11.107 -1.262,15.209 -0.771,11.863 -5.71,23.538 -3.5,35.529 1.914,10.384 9.249,19.13 17.976,25.072 C 3.161,61.895 39.531,55.304 56.911,31.907 62.201,24.784 65.572,16.381 67.717,7.771 69.272,1.523 70.18,-5.218 67.901,-11.24 65.395,-18.761 62,-26.097 59.03,-33.455 c -1.253,0.254 -2.086,1.423 -2.7,2.544 -5.344,9.758 -3.611,21.64 -3.696,32.765 C 52.587,7.878 48.263,24.763 38.88,15.973 29.795,7.461 19.349,2.071 6.742,0.561 4.506,0.293 2.252,0.152 0,0" transform="translate(429.63 161.326)" class="color2c2a8b svgShape"/>
          <path fill="#f88f71" d="m 0,0 c 2.689,7.624 8.546,14.553 12.753,21.349 1.997,3.226 4.183,6.84 4.712,10.66 0.38,2.745 -0.163,5.532 -0.885,8.207 -1.311,4.857 -3.225,9.551 -5.683,13.939 -1.721,3.074 -3.753,6.119 -4.218,9.612 -0.607,4.55 1.559,8.995 4.001,12.883 1.418,2.259 2.945,4.433 4.636,6.486 1.52,1.846 2.525,4.097 4.09,5.965 1.48,1.765 3.415,3.238 5.661,3.752 1.983,0.453 4.064,0.134 6.029,-0.393 3.171,-0.851 6.169,-2.231 9.15,-3.606 2.839,-1.309 5.812,-2.727 7.61,-5.285 0.866,-1.231 1.23,-3.263 -0.091,-3.984 -0.61,-0.333 -1.355,-0.231 -2.039,-0.109 -4.439,0.79 -8.8,2.021 -12.997,3.669 2.344,-2.305 5.868,-4.229 7.674,-7.109 0.916,-0.968 1.68,-2.02 1.915,-3.105 0.34,-1.563 -0.226,-3.187 -1.636,-4.023 -0.044,-0.025 -0.087,-0.052 -0.131,-0.077 -0.15,-0.089 -0.298,-0.143 -0.446,-0.208 1.015,-0.506 1.986,-1.083 2.803,-1.864 1.351,-1.293 2.23,-3.249 1.737,-5.053 -0.391,-1.429 -1.856,-2.518 -3.271,-2.481 1.991,-0.637 3.692,-2.172 4.459,-4.121 0.695,-1.766 0.506,-4.064 -1.018,-5.193 -1.202,-0.89 -2.779,-0.41 -3.737,0.583 C 42.153,45.601 44.396,42.036 42.899,36.7 42.387,34.876 41.568,33.153 40.991,31.349 40.224,28.956 39.889,26.45 39.496,23.969 37.901,13.919 35.293,4.062 32.69,-5.775 31.813,-9.087 30.826,-12.588 28.307,-14.909 23.618,-19.228 10.626,-20.592 5.025,-17.761 -0.979,-14.727 -2.237,-6.344 0,0" transform="translate(243.29 1.691)" class="colorf88f71 svgShape"/>
          <path fill="#ffffff" d="m 0,0 c 0.119,-0.591 0.281,-1.178 0.443,-1.756 5.115,-18.229 6.085,-36.847 19.711,-51.624 10.305,-11.089 28.703,-16.241 40.807,-7.148 6.704,5.036 10.204,13.344 11.736,21.588 4.411,23.729 -6.393,49.594 -26.374,63.136 -6.05,4.101 -29.775,23.422 -33.118,8.097 C 11.236,23.269 7.476,14.639 2.207,7.053 1.198,5.6 0.1,4.103 -0.13,2.35 -0.234,1.564 -0.156,0.778 0,0" transform="translate(294.18 19.565)" class="colorfff svgShape"/>
          <path fill="#ffffff" d="m 0,0 c 4.787,-5.776 11.828,-10.134 19.328,-9.971 7.5,0.163 15.01,5.847 15.633,13.324" transform="translate(422.97 120.897)" class="colorfff svgShape"/>
          <path fill="#f88f71" d="m 0,0 c 0.201,-2.102 1.744,-3.817 3.815,-4.228 4.208,-0.834 9.046,-1.518 12.383,1.18 1.235,0.999 2.116,2.373 2.783,3.815 1.98,4.276 2.163,9.351 0.495,13.759 -1.401,3.703 -4.294,5.64 -7.946,6.789 -0.953,0.3 -1.95,0.567 -2.94,0.436 C 7.276,21.577 6.158,20.734 5.16,19.863 -2.515,13.166 -5.361,2.33 1.89,-6.05" transform="translate(474.11 136.597)" class="colorf88f71 svgShape"/>
          <path fill="none" stroke="#008080" stroke-miterlimit="10" d="m 0,0 c -2.624,0.927 -5.694,0.027 -7.694,-1.907 -2,-1.935 -2.993,-4.759 -3.066,-7.54 -0.026,-1.001 0.117,-2.126 0.901,-2.751" transform="translate(488.322 152.454)" class="colorStroke2c2a8b svgStroke"/>
          <path fill="none" stroke="#008080" stroke-miterlimit="10" d="M 0,0 C 2.51,-0.795 4.145,-3.691 3.529,-6.251" transform="translate(480.031 150.397)" class="colorStroke2c2a8b svgStroke"/>
          <path fill="none" stroke="#008080" stroke-miterlimit="10" d="m 0,0 c 2.924,-1.74 6.396,-2.434 9.796,-2.333 3.4,0.101 6.742,0.965 9.926,2.164" transform="translate(432.573 99.523)" class="colorStroke2c2a8b svgStroke"/>
          <path fill="none" stroke="#008080" stroke-miterlimit="10" d="M 0,0 C 16.121,-13.869 19.494,-40.287 7.375,-57.761" transform="translate(155.573 53.527)" class="colorStroke2c2a8b svgStroke"/>
          <path fill="none" stroke="#008080" stroke-miterlimit="10" d="m 0,0 c 8.699,11.416 21.364,19.747 35.291,23.215 13.926,3.467 29.02,2.048 42.056,-3.956" transform="translate(57.04 64.326)" class="colorStroke2c2a8b svgStroke"/>
          <path fill="#ffa88d" d="m 0,0 c 1.786,2.834 3.658,5.643 5.875,8.163 1.707,1.942 5.498,8.896 8.228,4.519 0.683,-1.099 0.554,-2.386 0.305,-3.603 C 13.876,6.474 12.26,4.058 10.75,1.924 5.058,-6.111 0.458,-14.917 -2.887,-24.179 c 7.971,10.16 18.315,18.448 29.969,24.011 1.056,0.503 2.287,0.99 3.357,0.519 2.35,-1.036 1.007,-4.627 -0.783,-6.467 -4.211,-4.328 -9.249,-7.757 -13.726,-11.809 -4.476,-4.053 -8.513,-8.984 -9.8,-14.883 9.178,4.379 17.903,9.707 25.99,15.871 1.7,1.296 4.683,3.976 6.57,1.221 1.845,-2.693 -4.433,-7.806 -6.085,-9.536 -2.93,-3.07 -21.126,-16.14 -17.73,-18.652 2.454,-1.814 11.852,2.132 14.27,3.426 2.731,1.461 14.915,8.075 10.411,0.334 -2.735,-4.698 -12.588,-8.46 -17.609,-9.662 -2.409,-0.574 -5.048,-1.006 -6.765,-2.791 -0.912,-0.948 -1.456,-2.183 -1.997,-3.382 -3.344,-7.411 -8.695,-12.792 -15.092,-17.64 -7.274,-5.511 -11.001,-10.133 -15.038,-18.84 -19.846,-42.802 -35.99,-86.497 -53.231,-130.368 -5.018,-12.766 -14.33,-27.856 -28.596,-31.689 -12.068,-3.243 -24.421,4.727 -32.472,14.285 -10.816,12.84 -17.317,30.705 -12.111,46.666 1.998,6.126 5.572,11.606 9.355,16.821 16.291,22.454 36.832,41.152 57.139,59.831 19.94,18.343 36.305,40.679 49.417,64.306 C -17.825,-35.274 -10.619,-16.852 0,0" transform="translate(244.306 271.021)" class="colorffa88d svgShape"/>
          <path fill="#ffffff" d="M 0,0 V 0 C 0,5.865 -4.754,10.619 -10.619,10.619 -4.754,10.619 0,15.373 0,21.237 0,15.373 4.754,10.619 10.619,10.619 4.754,10.619 0,5.865 0,0" transform="translate(590.086 274.918)" class="colorfff svgShape"/>
          <path fill="#ffffff" d="m 0,0 h -0.001 c 0,5.865 -4.754,10.619 -10.618,10.619 5.864,0 10.618,4.754 10.618,10.618 H 0 C 0,15.373 4.754,10.619 10.618,10.619 4.754,10.619 0,5.865 0,0" transform="translate(606.92 294.86)" class="colorfff svgShape"/>
          <path fill="#ffffff" d="M 0,0 V 0 C 0,5.865 -4.755,10.619 -10.619,10.619 -4.755,10.619 0,15.373 0,21.238 0,15.373 4.754,10.619 10.618,10.619 4.754,10.619 0,5.865 0,0" transform="translate(610.806 255.753)" class="colorfff svgShape"/>
          <path fill="#ffffff" d="M 0,0 V 0 C 0,5.864 -4.754,10.618 -10.619,10.618 -4.754,10.618 0,15.373 0,21.237 0,15.373 4.754,10.618 10.619,10.618 4.754,10.618 0,5.864 0,0" transform="translate(359.842 200.588)" class="colorfff svgShape"/>
          <path fill="#ffffff" d="M 0,0 V 0 C 0,5.865 -4.754,10.619 -10.619,10.619 -4.754,10.619 0,15.373 0,21.238 0,15.373 4.754,10.619 10.619,10.619 4.754,10.619 0,5.865 0,0" transform="translate(346.374 234.774)" class="colorfff svgShape"/>
          <path fill="#ffffff" d="M 0,0 V 0 C 0,5.864 -4.754,10.619 -10.619,10.619 -4.754,10.619 0,15.373 0,21.238 0,15.373 4.754,10.619 10.619,10.619 4.754,10.619 0,5.864 0,0" transform="translate(375.39 228.763)" class="colorfff svgShape"/>
          <path fill="none" stroke="#008080" stroke-miterlimit="10" d="m 0,0 c -12.973,6.639 -47.254,18.301 -54.689,-1.579 -2.092,-5.591 -1.612,-11.758 -1.512,-17.726 0.124,-7.419 -0.559,-15.333 -5.037,-21.248 -6.484,-8.561 -19.12,-10.625 -25.512,-19.256 -3.829,-5.17 -4.789,-12.026 -3.981,-18.41 0.806,-6.384 3.215,-12.439 5.603,-18.415" transform="translate(685.81 71.678)" class="colorStroke2c2a8b svgStroke"/>
          <path fill="#f88f71" d="m 0,0 c -3.882,3.739 -9.422,10.093 -15.062,6.552 -0.768,-0.483 -1.481,-1.086 -1.957,-1.86 -1.833,-2.979 0.177,-7.525 2.29,-9.867 -1.47,1.63 -4.539,2.481 -6.568,1.379 -2.154,-1.169 -2.3,-4.267 -1.925,-6.394 0.377,-2.145 1.183,-4.212 2.356,-6.046 -1.683,0.943 -3.949,0.421 -5.297,-0.959 -2.969,-3.041 -0.823,-7.284 0.421,-10.641 -1.258,0.491 -2.772,0.03 -3.692,-0.958 -0.919,-0.989 -1.277,-2.416 -1.141,-3.76 0.221,-2.185 1.519,-4.845 2.664,-6.702 2.972,-4.817 6.454,-9.319 10.371,-13.407 6.05,-6.312 14.979,-8.479 21.456,-14.178 6.891,-6.064 11.759,-15.272 16.924,-22.916 12.566,-18.597 24.643,-37.524 36.216,-56.757 14.844,-24.672 29.869,-50.908 54.472,-65.866 7.923,-4.817 17.192,-8.37 26.346,-6.892 14.629,2.361 24.669,17.381 25.743,32.161 3.166,43.59 -48.816,79.091 -78.435,103.304 -10.342,8.453 -20.701,16.902 -30.569,25.911 -8.021,7.324 -20.122,16.252 -23.839,26.805 -1.343,3.814 -2.656,7.941 -5.101,11.194 -2.181,2.899 -5.299,4.4 -8.382,6.157 C 11.166,-10.251 5.953,-5.448 0.772,-0.727 0.522,-0.499 0.266,-0.256 0,0" transform="translate(538.34 177.731)" class="colorf88f71 svgShape"/>
          <path fill="none" stroke="#008080" stroke-miterlimit="10" d="M 0,0 C -6.554,0.189 -13.151,-1.689 -18.622,-5.303" transform="translate(584.65 199.892)" class="colorStroke2c2a8b svgStroke"/>
        </g>
        <g clip-path="url(#h)" fill="#000000" class="color000 svgShape">
          <g clip-path="url(#i)" opacity=".19" fill="#000000" class="color000 svgShape">
            <path fill="#846cc1" d="m 0,0 c 11.351,-11.95 19.11,-26.084 28.704,-39.145 10.585,-14.41 17.934,-30.166 21.096,-47.96 0.294,-1.654 0.556,-3.333 1.221,-4.874 0.999,-2.324 2.83,-4.168 4.605,-5.968 12.654,-12.82 24.885,-26.728 31.298,-43.561 6.414,-16.832 6.023,-37.26 -5.129,-51.405 -2.408,-3.055 -5.421,-6.162 -5.435,-10.051 -0.047,-13.467 32.417,3.549 36.745,7.341 13.312,11.664 19.854,29.673 20.667,47.353 0.814,17.68 -3.551,35.199 -9.101,52.005 -8.798,26.643 -20.886,52.372 -34.554,76.847 C 76.78,4.465 60.228,26.996 38.587,43.728 15.053,61.924 -19.228,75.682 -49.221,67.485 c -9.246,-2.527 -20.576,-13.219 -30.374,-11.94 -12.478,1.628 -14.949,18.478 -15.556,28.313 -1.105,17.859 -1.01,35.792 0.284,53.639 1.078,14.886 2.988,29.867 1.146,44.678 -1.21,9.736 -4.02,19.191 -6.82,28.593 -2.829,9.502 -5.657,19.003 -8.486,28.504 28.817,0.421 54.623,-22.353 63.689,-49.71 9.067,-27.357 3.774,-57.809 -8.086,-84.077 C -60.635,89.514 -80.006,60.034 -61.479,45.843 -40.836,30.029 -18.298,19.265 0,0" transform="translate(588.765 174.324)" class="color846cc1 svgShape"/>
          </g>
        </g>
        <g clip-path="url(#j)" fill="#000000" class="color000 svgShape">
          <g clip-path="url(#k)" opacity=".19" fill="#000000" class="color000 svgShape">
            <path fill="#846cc1" d="m 0,0 c 3.68,-10.146 2.011,-22.068 -4.312,-30.814 3.008,2.613 8.011,1.326 10.624,-1.683 2.614,-3.009 3.422,-7.145 3.987,-11.09 1.426,-9.966 1.914,-20.065 1.454,-30.122 -0.222,-4.843 -0.712,-9.845 -3.079,-14.076 -5.389,-9.631 -18.027,-11.847 -29,-13.018 10.597,-7.352 17.409,-19.201 21.089,-31.563 3.679,-12.363 4.531,-25.363 5.36,-38.235 10.328,8.592 26.029,8.391 37.969,2.233 11.939,-6.158 20.614,-17.245 27.197,-28.956 5.353,-9.521 9.611,-19.708 16.045,-28.533 6.434,-8.827 15.628,-16.4 26.474,-17.689 3.854,-0.458 8.301,0.163 10.605,3.288 1.567,2.125 1.785,4.932 1.841,7.572 0.725,34.666 -16.65,67.364 -38.387,94.377 -8.178,10.163 -17.182,20.027 -22.079,32.117 -4.571,11.284 -5.229,23.697 -6.393,35.816 C 56.305,-38.207 48.339,-4.643 25.917,18.631 18.083,26.763 1.485,38.419 -9.988,29.697 -22.044,20.533 -3.25,8.962 0,0" transform="translate(461.325 200.215)" class="color846cc1 svgShape"/>
          </g>
        </g>
        <g clip-path="url(#l)" fill="#000000" class="color000 svgShape">
          <g clip-path="url(#m)" opacity=".1" fill="#000000" class="color000 svgShape">
            <path fill="#ffffff" d="m 0,0 c 4.257,-5.253 12.336,-5.058 18.854,-3.262 6.457,1.779 12.671,4.819 17.988,8.913 6.401,4.928 11.5,11.381 14.154,18.993 2.384,6.839 2.262,15.492 -3.294,20.139 C 37.511,53.309 18.992,49.96 10.322,41.179 2.75,33.508 -7.728,9.536 0,0" transform="translate(402.262 376.78)" class="colorfff svgShape"/>
          </g>
          <g fill="#000000" class="color000 svgShape">
            <g clip-path="url(#n)" opacity=".19" fill="#000000" class="color000 svgShape">
              <path fill="#846cc1" d="m 0,0 c -3.072,-4.855 -6.833,-9.245 -12.198,-10.865 6.861,-8.112 17.948,-11.909 28.563,-11.466 30.596,1.277 47.011,26.562 54.142,53.498 4.206,15.886 5.902,32.325 9.437,48.373 3.496,15.871 8.796,31.345 15.765,46.027 3.848,8.106 12.497,31.6 -5.827,24.595 C 76.893,145.195 65.875,117.754 58.673,106.465 44.963,84.974 29.876,64.317 20.594,40.59 15.765,28.246 9.333,16.604 2.921,5.005 2.002,3.343 1.041,1.645 0,0" transform="translate(137.963 32.25)" class="color846cc1 svgShape"/>
            </g>
          </g>
        </g>
        <g clip-path="url(#o)" fill="#000000" class="color000 svgShape">
          <g clip-path="url(#p)" opacity=".1" fill="#000000" class="color000 svgShape">
            <path fill="#ffffff" d="m 0,0 c 2.971,3.721 6.269,7.327 8.367,11.083 1.231,2.2 2.387,4.485 4.121,6.315 1.735,1.831 4.189,3.173 6.695,2.902 2.495,-0.27 4.604,-2.097 5.864,-4.267 1.26,-2.17 1.809,-4.667 2.342,-7.119 0.395,-1.825 0.792,-3.65 1.188,-5.476 0.547,-2.522 0.975,-5.51 -0.81,-7.374 -1.275,-1.33 -3.422,-1.731 -4.348,-3.324 -0.404,-0.696 -0.507,-1.519 -0.654,-2.31 -1.921,-10.264 -12.629,-15.251 -14.924,-25.161 -0.436,-1.882 -0.436,-3.873 -1.143,-5.67 -0.706,-1.799 -2.462,-3.426 -4.364,-3.088 -1.26,0.223 -2.22,1.228 -3.03,2.218 -6.616,8.08 -6.812,18.322 -5.893,28.212 C -6.149,-8.335 -3.273,-4.099 0,0" transform="translate(510.37 174.309)" class="colorfff svgShape"/>
          </g>
        </g>
        <g clip-path="url(#q)" fill="#000000" class="color000 svgShape">
          <g clip-path="url(#r)" opacity=".1" fill="#000000" class="color000 svgShape">
            <path fill="#ffffff" d="m 0,0 c 0.095,-0.398 0.21,-0.795 0.348,-1.187 1.611,-4.61 6.069,-7.83 10.825,-8.935 4.756,-1.106 9.767,-0.36 14.447,1.032 12.13,3.611 50.408,31.558 30.706,45.764 C 38.269,49.694 9.375,30.165 2.228,13.496 0.401,9.234 -1.061,4.446 0,0" transform="translate(375.586 178.731)" class="colorfff svgShape"/>
          </g>
        </g>
        <g clip-path="url(#s)" fill="#000000" class="color000 svgShape">
          <g clip-path="url(#t)" opacity=".1" fill="#000000" class="color000 svgShape">
            <path fill="#ffffff" d="M 0,0 C 13.976,13.177 31.522,24.601 50.72,24.003 57.204,23.801 64.3,21.738 67.649,16.183 72.671,7.852 66.718,-2.578 60.957,-10.416 48.783,-26.979 36.609,-43.541 24.436,-60.104 16.843,-70.435 9.138,-80.884 -0.797,-88.986 c -9.935,-8.103 -22.511,-13.736 -35.296,-12.785 -21.012,1.563 -12.104,34.78 -5.158,46.263 C -29.127,-35.463 -17.167,-16.246 0,0" transform="translate(83.253 186.793)" class="colorfff svgShape"/>
          </g>
        </g>
        <g clip-path="url(#u)" fill="#000000" class="color000 svgShape">
          <g clip-path="url(#v)" opacity=".1" fill="#000000" class="color000 svgShape">
            <path fill="#ffffff" d="m 0,0 c 12.451,17.639 45.463,36.239 64.342,17.232 1.002,-1.009 1.955,-2.149 2.302,-3.527 0.388,-1.539 -0.035,-3.17 -0.652,-4.632 C 60.97,-2.83 45.491,-5.704 35.955,-14.419 25.693,-23.798 23.201,-39.133 14.267,-49.785 c -2.525,-3.011 -5.728,-5.7 -9.581,-6.473 -7.667,-1.54 -14.993,5.351 -16.766,12.968 -1.774,7.616 0.502,15.536 2.933,22.969 C -6.83,-13.233 -4.3,-6.093 0,0" transform="translate(164.507 367.438)" class="colorfff svgShape"/>
          </g>
        </g>
      </g>
    </svg>
  </g>
</svg>